<svg version="1.1" id="Layer_1" xmlns="http://www.w3.org/2000/svg" xmlns:xlink="http://www.w3.org/1999/xlink" x="0px" y="0px"
	 width="100%" viewBox="0 0 3840 2160" enable-background="new 0 0 3840 2160" xml:space="preserve">
<path fill="#47704C" opacity="1.000000" stroke="none" 
	d="
M2522.000000,2162.000000 
	C1681.333496,2162.000000 841.666992,2162.000000 2.000338,2162.000000 
	C2.000225,1442.000244 2.000225,722.000549 2.000113,2.000628 
	C1281.999512,2.000419 2561.999023,2.000419 3841.999023,2.000209 
	C3841.999268,721.999329 3841.999268,1441.998657 3841.999512,2161.999023 
	C3402.333252,2162.000000 2962.666748,2162.000000 2522.000000,2162.000000 
M1936.463135,974.242615 
	C1932.282227,973.211853 1928.014282,972.446960 1923.933472,971.110413 
	C1861.139526,950.543762 1800.340454,925.232483 1742.003906,894.139587 
	C1724.371460,884.741638 1706.890991,875.055176 1689.436279,865.329834 
	C1684.906372,862.805847 1680.693115,860.627991 1681.333252,853.356323 
	C1682.647949,838.420959 1682.012207,838.364441 1667.040894,838.324707 
	C1665.041138,838.319397 1663.041382,838.322876 1661.041626,838.322876 
	C1541.390625,838.322815 1421.739746,838.321838 1302.088745,838.323120 
	C1255.761475,838.323608 1209.434204,838.295410 1163.106934,838.358337 
	C1152.852905,838.372314 1152.396362,838.850708 1152.363159,849.123901 
	C1152.281128,874.453674 1152.327271,899.783875 1152.329346,925.113892 
	C1152.330566,940.445190 1152.231079,955.777710 1152.402710,971.107178 
	C1152.489502,978.859253 1153.362061,979.557129 1161.070435,979.990356 
	C1164.062744,980.158508 1167.067383,980.149170 1170.066406,980.151489 
	C1214.372437,980.185791 1258.678345,980.238342 1302.984375,980.227966 
	C1415.293579,980.201660 1527.602783,980.151062 1639.911987,980.093628 
	C1650.909424,980.088013 1661.910645,980.123840 1672.902832,979.849487 
	C1680.850708,979.651123 1681.904053,978.265686 1681.598389,970.179993 
	C1681.509644,967.834778 1681.332764,965.492920 1681.196411,963.149536 
	C1686.791016,970.372253 1691.226929,977.739075 1694.598145,985.564636 
	C1697.670776,992.697266 1703.020752,996.013184 1709.901489,998.517212 
	C1758.091919,1016.054871 1806.563843,1032.709351 1856.423340,1044.924683 
	C1882.250854,1051.252197 1907.976440,1058.199097 1934.606201,1060.652954 
	C1941.002441,1061.242432 1947.341797,1062.448242 1953.707397,1063.370605 
	C1953.596436,1064.063477 1953.485474,1064.756226 1953.374512,1065.449097 
	C1875.188477,1064.889648 1798.644531,1052.281860 1721.015991,1030.993042 
	C1723.652954,1036.271362 1724.775146,1039.393677 1726.599487,1042.030273 
	C1740.423828,1062.010132 1754.061157,1082.132568 1768.417236,1101.726685 
	C1778.241211,1115.135254 1789.171509,1127.730713 1799.513794,1140.763550 
	C1803.265991,1145.491943 1807.682373,1147.897827 1813.999756,1147.926392 
	C1822.622803,1147.965332 1831.233887,1149.487305 1839.862427,1149.627930 
	C1866.181396,1150.056763 1892.506592,1150.296509 1918.828735,1150.248413 
	C1928.120483,1150.231445 1937.416992,1149.260498 1946.699219,1148.562256 
	C1956.024048,1147.860840 1965.333618,1146.956299 1974.649902,1146.140747 
	C1974.729370,1146.827637 1974.808960,1147.514648 1974.888428,1148.201660 
	C1927.512695,1162.748779 1878.597290,1168.068237 1827.727417,1170.352417 
	C1829.701416,1173.040161 1830.403198,1174.507935 1831.537231,1175.461670 
	C1844.268677,1186.168701 1857.143188,1196.706543 1869.830566,1207.464844 
	C1895.508057,1229.238159 1919.199097,1252.982056 1940.833740,1278.809326 
	C1963.455200,1305.814819 1982.828613,1334.894409 1994.944336,1368.061401 
	C2010.518555,1410.696289 2007.412964,1451.271240 1977.388794,1487.375854 
	C1971.051025,1494.997314 1963.449463,1501.567505 1955.649414,1509.287598 
	C1955.569092,1510.021362 1955.488770,1510.755249 1955.408447,1511.489136 
	C1956.406860,1511.143799 1957.405273,1510.798462 1959.713379,1510.025513 
	C1989.005493,1491.578491 2014.649658,1469.089355 2035.741577,1441.532593 
	C2053.633057,1418.157349 2066.033447,1392.321289 2071.075928,1363.161499 
	C2071.844971,1358.713623 2072.583496,1354.260620 2073.554688,1348.517944 
	C2084.821533,1355.600708 2093.720947,1363.573608 2102.126953,1371.861206 
	C2120.865967,1390.336060 2138.580811,1409.760742 2154.640137,1430.697632 
	C2184.418457,1469.520996 2209.423584,1510.933838 2225.726318,1557.311035 
	C2239.871094,1597.550049 2245.351562,1638.820801 2239.507568,1681.131836 
	C2234.078125,1720.440552 2219.298828,1756.137329 2195.018066,1787.736816 
	C2194.186035,1788.820068 2193.999023,1790.399048 2193.510986,1791.746826 
	C2198.739990,1789.791138 2202.684570,1786.915527 2206.315918,1783.687622 
	C2229.449707,1763.125488 2253.289307,1743.276001 2275.364258,1721.629395 
	C2294.096680,1703.260498 2311.333252,1683.264038 2328.238525,1663.153076 
	C2375.388672,1607.061646 2412.271484,1544.968994 2435.431641,1475.151245 
	C2446.464111,1441.892700 2454.463379,1407.826538 2457.295166,1372.932373 
	C2460.018799,1339.373657 2458.944336,1305.729736 2452.102539,1272.536743 
	C2444.671143,1236.484253 2433.447754,1201.651123 2415.723145,1169.333130 
	C2403.242676,1146.576904 2389.446289,1124.523193 2375.753418,1102.456177 
	C2360.236816,1077.449951 2347.034912,1051.415894 2337.768799,1023.427917 
	C2332.998047,1009.018372 2330.495850,994.240540 2331.887207,979.172852 
	C2333.981445,956.490784 2343.168213,937.427124 2363.492188,925.446533 
	C2385.619385,912.403015 2418.305176,920.954407 2428.392090,946.299622 
	C2429.318848,948.628357 2430.758789,950.752869 2432.609863,954.171997 
	C2437.737061,950.794800 2442.374268,948.312439 2446.346436,945.026001 
	C2464.576660,929.942871 2465.084961,894.539795 2452.598633,877.002014 
	C2439.141113,858.099792 2421.076660,845.594666 2399.347900,838.391296 
	C2385.460205,833.787415 2371.376221,829.594849 2357.134277,826.273743 
	C2307.600342,814.722717 2257.876221,803.984009 2208.383301,792.265381 
	C2161.564453,781.179932 2116.451416,765.314636 2074.426025,741.423401 
	C2039.236084,721.418091 2008.533813,696.343140 1985.294556,662.829590 
	C1966.240112,635.350952 1952.504639,605.750244 1949.435303,571.928040 
	C1949.140991,568.685730 1947.996460,565.520691 1947.246582,562.319763 
	C1946.556152,562.508728 1945.865845,562.697693 1945.175415,562.886658 
	C1943.591187,598.757996 1952.511597,632.743958 1967.888672,664.659668 
	C2003.111694,737.766235 2062.310059,780.476624 2141.615234,796.633057 
	C2138.533691,797.532043 2135.875977,797.848389 2133.317383,797.478699 
	C2120.480713,795.623840 2107.614990,793.891846 2094.860352,791.563660 
	C2049.656250,783.312134 2006.615356,768.799744 1966.388550,746.364380 
	C1957.676636,741.505493 1949.056274,736.482117 1939.723022,730.706299 
	C1938.899048,730.642456 1938.074951,730.578552 1937.250977,730.514648 
	C1937.640625,731.462830 1938.030273,732.411011 1939.289551,734.391785 
	C2003.196045,787.076721 2076.466797,815.705750 2161.738525,818.739075 
	C2157.243652,822.625671 2154.617920,824.566589 2152.385742,826.886108 
	C2144.554688,835.022766 2135.842041,842.557678 2129.299316,851.642517 
	C2108.449219,880.594543 2099.184082,913.635315 2097.711182,949.001892 
	C2096.501465,978.042236 2100.562744,1006.266296 2113.236328,1032.643555 
	C2120.432373,1047.620850 2128.183105,1062.438843 2136.975830,1076.522095 
	C2161.842041,1116.350464 2187.115234,1155.931641 2212.721191,1195.289551 
	C2236.339600,1231.592529 2260.144775,1267.770752 2280.077393,1306.279419 
	C2288.021484,1321.626465 2296.418213,1336.875488 2300.286133,1353.987427 
	C2301.408936,1358.955444 2302.968750,1363.924438 2301.304199,1369.813354 
	C2299.883301,1368.528931 2299.035156,1368.005737 2298.513428,1367.255493 
	C2279.890137,1340.474976 2261.765869,1313.332886 2242.604248,1286.943848 
	C2200.342773,1228.741699 2157.594971,1170.899170 2117.972656,1110.826050 
	C2083.674316,1058.824951 2049.409668,1006.859314 2025.115723,949.091675 
	C2016.088379,927.625549 2001.482056,910.936646 1980.776123,899.334961 
	C1963.365234,889.579407 1946.139771,879.239563 1929.969482,867.581116 
	C1904.610840,849.298340 1879.570801,830.450989 1855.603271,810.399414 
	C1835.976074,793.978943 1817.240479,776.275330 1799.658325,757.676575 
	C1770.385742,726.711548 1742.980591,694.144897 1718.212891,659.282898 
	C1697.532104,630.173340 1678.176880,600.276978 1660.666260,569.275696 
	C1626.708862,509.157288 1597.672241,446.674347 1574.301025,381.630554 
	C1573.132080,378.377350 1571.457764,375.305725 1569.225586,370.409790 
	C1567.648560,373.902069 1566.598877,375.266663 1566.437622,376.729187 
	C1564.328857,395.876129 1561.583984,414.996979 1560.576050,434.207153 
	C1559.794189,449.106903 1560.710693,464.159058 1561.776367,479.078888 
	C1563.789673,507.269196 1565.357544,535.560669 1569.126831,563.538452 
	C1573.736206,597.750061 1579.238281,631.836426 1587.165405,665.577576 
	C1594.631226,697.355774 1602.575317,728.905090 1612.444946,760.017944 
	C1617.184570,774.959595 1625.644043,786.077209 1638.772583,794.865173 
	C1674.466309,818.757751 1709.267212,843.990540 1745.092163,867.678650 
	C1770.625000,884.561340 1797.006470,900.207397 1823.440063,915.668823 
	C1853.027954,932.975342 1883.138062,949.362793 1914.789062,962.742798 
	C1922.673706,966.076050 1930.185913,970.290710 1937.959229,974.000366 
	C1937.959229,974.000366 1938.048828,973.900208 1936.463135,974.242615 
M3752.785889,897.790649 
	C3734.630615,915.918091 3716.469971,934.040100 3698.321777,952.174683 
	C3679.933350,970.548828 3661.557861,988.935669 3643.176514,1007.316833 
	C3625.030762,1025.462280 3606.960693,1043.684326 3588.718262,1061.732056 
	C3570.353760,1079.901245 3552.604004,1098.717041 3533.354248,1116.404785 
	C3530.860107,1114.087891 3529.114014,1112.566406 3527.479492,1110.932861 
	C3493.312988,1076.786987 3459.203613,1042.583862 3424.981201,1008.494141 
	C3410.357178,993.926697 3395.381836,979.711487 3380.786133,965.116516 
	C3365.965332,950.296143 3351.516113,935.104614 3336.725342,920.254028 
	C3311.628418,895.056091 3286.407471,869.981750 3261.174805,844.919556 
	C3259.510986,843.266846 3257.307861,842.156860 3254.875732,840.459473 
	C3252.673828,854.335571 3253.310791,1388.751953 3255.683105,1397.435059 
	C3266.846436,1397.513550 3278.408936,1397.625854 3289.971191,1397.667114 
	C3301.302246,1397.707642 3312.633545,1397.676025 3323.964600,1397.676025 
	C3335.629150,1397.676025 3347.295166,1397.804810 3358.957520,1397.639648 
	C3370.441406,1397.476929 3382.006836,1398.427856 3394.337891,1396.811035 
	C3394.337891,1372.979004 3394.338135,1350.358398 3394.338135,1327.737793 
	C3394.338135,1305.075439 3394.329834,1282.413208 3394.339844,1259.750854 
	C3394.349609,1237.268188 3394.291992,1214.783569 3394.382812,1192.302490 
	C3395.113770,1192.075684 3395.844727,1191.848877 3396.575928,1191.622070 
	C3442.015869,1237.062134 3487.455811,1282.502319 3533.157471,1328.204102 
	C3579.483154,1282.171143 3624.862549,1237.078369 3670.242188,1191.985596 
	C3670.937744,1192.253662 3671.633301,1192.521851 3672.328857,1192.790039 
	C3672.328857,1196.664551 3672.328857,1200.538940 3672.328857,1204.413452 
	C3672.329346,1264.401855 3672.309326,1324.390381 3672.375732,1384.378784 
	C3672.380127,1388.524780 3673.026611,1392.669922 3673.348877,1396.510010 
	C3686.638672,1398.555908 3804.625244,1398.019287 3812.055420,1396.076904 
	C3814.486572,1386.882080 3814.303955,848.913940 3811.553223,840.161255 
	C3791.014404,858.144226 3773.065674,878.163452 3752.785889,897.790649 
M2665.661621,1138.999878 
	C2665.706055,1223.329468 2665.748535,1307.659058 2665.819824,1391.988647 
	C2665.820557,1392.961426 2666.178711,1393.937622 2666.402344,1394.904663 
	C2666.476074,1395.222778 2666.601562,1395.555054 2666.795166,1395.811890 
	C2666.989990,1396.070435 2667.298096,1396.243408 2669.057129,1397.675781 
	C2671.469482,1397.675781 2675.392334,1397.675903 2679.314941,1397.675903 
	C2730.980957,1397.676025 2782.646973,1397.676514 2834.312988,1397.676147 
	C2914.312988,1397.675537 2994.312744,1397.631470 3074.312744,1397.751709 
	C3080.977295,1397.761719 3086.345215,1396.402344 3091.316406,1391.395020 
	C3133.822021,1348.577881 3176.532227,1305.963379 3219.260254,1263.367676 
	C3222.780029,1259.858887 3224.469238,1256.227295 3224.463867,1251.074219 
	C3224.322021,1117.407837 3224.348145,983.741272 3224.295410,850.074768 
	C3224.293945,846.562500 3223.737305,843.050415 3223.415527,839.252930 
	C3219.822754,838.879639 3217.224365,838.377686 3214.625732,838.374390 
	C3174.292480,838.323792 3133.959229,838.290833 3093.625977,838.371155 
	C3083.945068,838.390442 3083.649170,838.887634 3083.649902,848.627502 
	C3083.652344,888.960815 3083.660400,929.294067 3083.661133,969.627380 
	C3083.662842,1038.627319 3083.550781,1107.627563 3083.807617,1176.626587 
	C3083.837158,1184.621704 3081.400635,1190.416382 3075.722656,1195.933105 
	C3057.558350,1213.583496 3039.702637,1231.556519 3021.966309,1249.638916 
	C3017.460449,1254.232422 3012.772705,1256.453979 3006.186035,1256.433594 
	C2942.853271,1256.237549 2879.519531,1256.327148 2816.186279,1256.276001 
	C2813.000732,1256.273438 2809.815674,1255.729858 2805.670654,1255.350342 
	C2805.670654,1231.427124 2805.670654,1208.482910 2805.670654,1185.538574 
	C2805.670654,1162.538574 2805.670654,1139.538696 2805.670654,1116.538696 
	C2805.670654,1093.538696 2805.670654,1070.538696 2805.670654,1047.538696 
	C2805.670654,1024.205322 2805.670654,1000.872070 2805.670654,977.538757 
	C2805.670654,954.538757 2805.704834,931.538757 2805.661133,908.538818 
	C2805.617676,885.658081 2805.856934,862.769043 2805.516846,840.310303 
	C2794.660400,837.461853 2674.719482,837.714294 2665.661621,840.616211 
	C2665.661621,939.141235 2665.661621,1038.070435 2665.661621,1138.999878 
M354.340485,1053.000122 
	C354.340485,982.109253 354.340485,911.218323 354.340485,839.425781 
	C348.865448,838.991089 344.661499,838.376099 340.456299,838.367493 
	C303.136505,838.291321 265.816528,838.311279 228.496582,838.326721 
	C211.243942,838.333923 212.332748,837.271423 212.331970,854.724304 
	C212.324173,1030.327881 212.327209,1205.931519 212.327805,1381.535156 
	C212.327805,1383.534424 212.297974,1385.534668 212.346680,1387.532837 
	C212.578156,1397.031982 213.011581,1397.585327 222.758362,1397.637451 
	C242.083633,1397.740845 261.409821,1397.677979 280.735626,1397.678101 
	C402.358612,1397.678833 523.981628,1397.685913 645.604614,1397.646118 
	C650.144836,1397.644531 654.684937,1397.180054 658.950684,1396.946411 
	C661.394775,1384.019775 660.757935,1264.913208 657.975159,1256.322021 
	C653.846741,1256.322021 649.267700,1256.322021 644.688660,1256.322021 
	C552.721680,1256.321533 460.754669,1256.330688 368.787689,1256.291870 
	C364.238190,1256.290039 359.688873,1255.868774 354.340546,1255.603149 
	C354.340546,1188.121582 354.340546,1121.560913 354.340485,1053.000122 
M891.000061,1256.320923 
	C868.835083,1256.020142 846.633179,1256.967041 824.549255,1255.733032 
	C824.146484,1253.084595 823.803406,1251.789429 823.773254,1250.486938 
	C823.272644,1228.855347 822.425842,1207.222656 822.441223,1185.590698 
	C822.459351,1159.957886 823.562195,1134.326416 823.610413,1108.693237 
	C823.771606,1023.027832 823.673523,937.361877 823.663513,851.696167 
	C823.663208,849.031799 824.165039,846.134644 823.285522,843.773376 
	C822.519348,841.716492 820.415405,839.527405 818.382080,838.738647 
	C816.041748,837.830750 813.129578,838.333496 810.465759,838.332520 
	C772.132874,838.318542 733.799927,838.320923 695.467041,838.328247 
	C693.134460,838.328674 690.801392,838.385010 688.469421,838.448120 
	C684.438232,838.557251 682.378906,840.581055 682.333862,844.678406 
	C682.278870,849.676331 682.038086,854.673340 682.039307,859.670715 
	C682.061340,951.640686 682.118896,1043.610596 682.145264,1135.580566 
	C682.168884,1218.201904 682.155334,1300.823242 682.196289,1383.444580 
	C682.198425,1387.676636 682.560242,1391.908447 682.740906,1395.840576 
	C691.794800,1398.323608 1120.173584,1398.340454 1128.872803,1396.107178 
	C1131.083984,1386.791626 1130.897339,1265.943726 1128.613525,1257.704834 
	C1127.802246,1257.370728 1126.894653,1256.670654 1125.985718,1256.668945 
	C1048.323975,1256.518066 970.662048,1256.421509 891.000061,1256.320923 
M73.001579,838.322327 
	C60.210762,838.752319 47.313286,837.380859 34.915340,839.171875 
	C32.782818,852.429382 33.305111,1388.533081 35.228218,1396.038818 
	C44.485699,1398.529297 166.533630,1398.309448 174.347214,1395.788208 
	C176.721283,1384.676758 176.136398,846.823608 173.316605,838.322388 
	C140.839325,838.322388 107.920090,838.322388 73.001579,838.322327 
M2499.661621,1180.999878 
	C2499.705322,1251.313721 2499.746826,1321.627563 2499.817139,1391.941406 
	C2499.818115,1392.915161 2500.167236,1393.891724 2500.383789,1394.860352 
	C2500.455322,1395.181519 2500.568604,1395.520386 2500.759277,1395.780518 
	C2500.949707,1396.040649 2501.260742,1396.212646 2502.406250,1397.147217 
	C2504.737549,1397.285278 2508.000488,1397.643188 2511.263672,1397.646362 
	C2550.586426,1397.685547 2589.909424,1397.673828 2629.232178,1397.668091 
	C2631.230957,1397.667725 2633.229980,1397.592896 2635.228760,1397.569580 
	C2639.217041,1397.523193 2641.468994,1395.670654 2641.547852,1391.535156 
	C2641.586182,1389.536377 2641.667480,1387.537598 2641.660645,1385.538940 
	C2641.234375,1259.278809 2640.674072,1133.018921 2640.427734,1006.758362 
	C2640.322266,952.796875 2640.826660,898.833862 2641.202637,844.872559 
	C2641.233154,840.519226 2639.424316,838.766113 2635.497314,838.465454 
	C2633.838623,838.338440 2632.167480,838.336609 2630.501953,838.336365 
	C2590.512695,838.331177 2550.523438,838.310364 2510.534180,838.379944 
	C2507.325439,838.385559 2504.117676,839.023804 2499.661621,839.501953 
	C2499.661621,953.226257 2499.661621,1066.113037 2499.661621,1180.999878 
M1350.999878,1397.682373 
	C1455.595093,1397.682373 1560.190186,1397.683594 1664.785400,1397.676392 
	C1668.448730,1397.676147 1672.113281,1397.635742 1675.775024,1397.532715 
	C1679.323975,1397.432861 1681.347168,1395.600220 1681.503906,1391.997559 
	C1681.634155,1389.004272 1681.668579,1386.004883 1681.669312,1383.008179 
	C1681.679810,1346.033447 1681.682373,1309.058716 1681.673706,1272.083984 
	C1681.670044,1256.340576 1681.656006,1256.321899 1665.727173,1256.321167 
	C1540.479492,1256.315552 1415.231689,1256.316895 1289.984009,1256.317993 
	C1247.679565,1256.318359 1205.375244,1256.287109 1163.070801,1256.354004 
	C1152.855469,1256.370117 1152.374268,1256.860352 1152.357910,1267.142578 
	C1152.294189,1307.115234 1152.310181,1347.087891 1152.372070,1387.060425 
	C1152.376953,1390.242065 1152.959717,1393.422852 1153.380371,1397.682373 
	C1219.226929,1397.682373 1284.113403,1397.682373 1350.999878,1397.682373 
M1590.999878,1048.038940 
	C1445.274658,1048.038940 1299.549316,1048.038940 1153.078369,1048.038940 
	C1153.078369,1095.273315 1153.078369,1141.023682 1153.078369,1186.366211 
	C1154.373779,1187.115601 1154.899658,1187.600952 1155.502441,1187.731201 
	C1156.793579,1188.010254 1158.124268,1188.255371 1159.438843,1188.255615 
	C1330.652344,1188.288940 1501.865845,1188.301270 1673.079346,1188.279175 
	C1675.047729,1188.278931 1677.017944,1187.832275 1678.982544,1187.559692 
	C1679.292358,1187.516602 1679.612305,1187.335449 1679.862915,1187.136719 
	C1680.117676,1186.934570 1680.292480,1186.631714 1681.092773,1185.644653 
	C1681.246460,1183.476196 1681.633179,1180.538818 1681.636230,1177.601196 
	C1681.676147,1137.962158 1681.664429,1098.323242 1681.656372,1058.684204 
	C1681.656006,1057.019897 1681.590820,1055.354736 1681.516846,1053.691650 
	C1681.358276,1050.129028 1679.508911,1048.164062 1675.923462,1048.004395 
	C1673.597168,1047.900635 1671.264526,1047.909180 1668.934814,1047.911987 
	C1643.623169,1047.943237 1618.311523,1047.983276 1590.999878,1048.038940 
z"/>
<path fill="#000100" opacity="1.000000" stroke="none" 
	d="
M1956.430298,1508.622070 
	C1963.449463,1501.567505 1971.051025,1494.997314 1977.388794,1487.375854 
	C2007.412964,1451.271240 2010.518555,1410.696289 1994.944336,1368.061401 
	C1982.828613,1334.894409 1963.455200,1305.814819 1940.833740,1278.809326 
	C1919.199097,1252.982056 1895.508057,1229.238159 1869.830566,1207.464844 
	C1857.143188,1196.706543 1844.268677,1186.168701 1831.537231,1175.461670 
	C1830.403198,1174.507935 1829.701416,1173.040161 1827.727417,1170.352417 
	C1878.597290,1168.068237 1927.512695,1162.748779 1974.888428,1148.201660 
	C1974.808960,1147.514648 1974.729370,1146.827637 1974.649902,1146.140747 
	C1965.333618,1146.956299 1956.024048,1147.860840 1946.699219,1148.562256 
	C1937.416992,1149.260498 1928.120483,1150.231445 1918.828735,1150.248413 
	C1892.506592,1150.296509 1866.181396,1150.056763 1839.862427,1149.627930 
	C1831.233887,1149.487305 1822.622803,1147.965332 1813.999756,1147.926392 
	C1807.682373,1147.897827 1803.265991,1145.491943 1799.513794,1140.763550 
	C1789.171509,1127.730713 1778.241211,1115.135254 1768.417236,1101.726685 
	C1754.061157,1082.132568 1740.423828,1062.010132 1726.599487,1042.030273 
	C1724.775146,1039.393677 1723.652954,1036.271362 1721.015991,1030.993042 
	C1798.644531,1052.281860 1875.188477,1064.889648 1953.374512,1065.449097 
	C1953.485474,1064.756226 1953.596436,1064.063477 1953.707397,1063.370605 
	C1947.341797,1062.448242 1941.002441,1061.242432 1934.606201,1060.652954 
	C1907.976440,1058.199097 1882.250854,1051.252197 1856.423340,1044.924683 
	C1806.563843,1032.709351 1758.091919,1016.054871 1709.901489,998.517212 
	C1703.020752,996.013184 1697.670776,992.697266 1694.598145,985.564636 
	C1691.226929,977.739075 1686.791016,970.372253 1681.196411,963.149536 
	C1681.332764,965.492920 1681.509644,967.834778 1681.598389,970.179993 
	C1681.904053,978.265686 1680.850708,979.651123 1672.902832,979.849487 
	C1661.910645,980.123840 1650.909424,980.088013 1639.911987,980.093628 
	C1527.602783,980.151062 1415.293579,980.201660 1302.984375,980.227966 
	C1258.678345,980.238342 1214.372437,980.185791 1170.066406,980.151489 
	C1167.067383,980.149170 1164.062744,980.158508 1161.070435,979.990356 
	C1153.362061,979.557129 1152.489502,978.859253 1152.402710,971.107178 
	C1152.231079,955.777710 1152.330566,940.445190 1152.329346,925.113892 
	C1152.327271,899.783875 1152.281128,874.453674 1152.363159,849.123901 
	C1152.396362,838.850708 1152.852905,838.372314 1163.106934,838.358337 
	C1209.434204,838.295410 1255.761475,838.323608 1302.088745,838.323120 
	C1421.739746,838.321838 1541.390625,838.322815 1661.041626,838.322876 
	C1663.041382,838.322876 1665.041138,838.319397 1667.040894,838.324707 
	C1682.012207,838.364441 1682.647949,838.420959 1681.333252,853.356323 
	C1680.693115,860.627991 1684.906372,862.805847 1689.436279,865.329834 
	C1706.890991,875.055176 1724.371460,884.741638 1742.003906,894.139587 
	C1800.340454,925.232483 1861.139526,950.543762 1923.933472,971.110413 
	C1928.014282,972.446960 1932.282227,973.211853 1937.245361,974.393311 
	C1938.447144,974.598755 1938.866821,974.653625 1939.286499,974.708496 
	C1938.814087,974.505676 1938.341675,974.302917 1937.869263,974.100159 
	C1930.185913,970.290710 1922.673706,966.076050 1914.789062,962.742798 
	C1883.138062,949.362793 1853.027954,932.975342 1823.440063,915.668823 
	C1797.006470,900.207397 1770.625000,884.561340 1745.092163,867.678650 
	C1709.267212,843.990540 1674.466309,818.757751 1638.772583,794.865173 
	C1625.644043,786.077209 1617.184570,774.959595 1612.444946,760.017944 
	C1602.575317,728.905090 1594.631226,697.355774 1587.165405,665.577576 
	C1579.238281,631.836426 1573.736206,597.750061 1569.126831,563.538452 
	C1565.357544,535.560669 1563.789673,507.269196 1561.776367,479.078888 
	C1560.710693,464.159058 1559.794189,449.106903 1560.576050,434.207153 
	C1561.583984,414.996979 1564.328857,395.876129 1566.437622,376.729187 
	C1566.598877,375.266663 1567.648560,373.902069 1569.225586,370.409790 
	C1571.457764,375.305725 1573.132080,378.377350 1574.301025,381.630554 
	C1597.672241,446.674347 1626.708862,509.157288 1660.666260,569.275696 
	C1678.176880,600.276978 1697.532104,630.173340 1718.212891,659.282898 
	C1742.980591,694.144897 1770.385742,726.711548 1799.658325,757.676575 
	C1817.240479,776.275330 1835.976074,793.978943 1855.603271,810.399414 
	C1879.570801,830.450989 1904.610840,849.298340 1929.969482,867.581116 
	C1946.139771,879.239563 1963.365234,889.579407 1980.776123,899.334961 
	C2001.482056,910.936646 2016.088379,927.625549 2025.115723,949.091675 
	C2049.409668,1006.859314 2083.674316,1058.824951 2117.972656,1110.826050 
	C2157.594971,1170.899170 2200.342773,1228.741699 2242.604248,1286.943848 
	C2261.765869,1313.332886 2279.890137,1340.474976 2298.513428,1367.255493 
	C2299.035156,1368.005737 2299.883301,1368.528931 2301.304199,1369.813354 
	C2302.968750,1363.924438 2301.408936,1358.955444 2300.286133,1353.987427 
	C2296.418213,1336.875488 2288.021484,1321.626465 2280.077393,1306.279419 
	C2260.144775,1267.770752 2236.339600,1231.592529 2212.721191,1195.289551 
	C2187.115234,1155.931641 2161.842041,1116.350464 2136.975830,1076.522095 
	C2128.183105,1062.438843 2120.432373,1047.620850 2113.236328,1032.643555 
	C2100.562744,1006.266296 2096.501465,978.042236 2097.711182,949.001892 
	C2099.184082,913.635315 2108.449219,880.594543 2129.299316,851.642517 
	C2135.842041,842.557678 2144.554688,835.022766 2152.385742,826.886108 
	C2154.617920,824.566589 2157.243652,822.625671 2161.738525,818.739075 
	C2076.466797,815.705750 2003.196045,787.076721 1939.348633,733.419922 
	C1939.736450,732.143494 1940.065063,731.839050 1940.393799,731.534546 
	C1949.056274,736.482117 1957.676636,741.505493 1966.388550,746.364380 
	C2006.615356,768.799744 2049.656250,783.312134 2094.860352,791.563660 
	C2107.614990,793.891846 2120.480713,795.623840 2133.317383,797.478699 
	C2135.875977,797.848389 2138.533691,797.532043 2141.615234,796.633057 
	C2062.310059,780.476624 2003.111694,737.766235 1967.888672,664.659668 
	C1952.511597,632.743958 1943.591187,598.757996 1945.175415,562.886658 
	C1945.865845,562.697693 1946.556152,562.508728 1947.246582,562.319763 
	C1947.996460,565.520691 1949.140991,568.685730 1949.435303,571.928040 
	C1952.504639,605.750244 1966.240112,635.350952 1985.294556,662.829590 
	C2008.533813,696.343140 2039.236084,721.418091 2074.426025,741.423401 
	C2116.451416,765.314636 2161.564453,781.179932 2208.383301,792.265381 
	C2257.876221,803.984009 2307.600342,814.722717 2357.134277,826.273743 
	C2371.376221,829.594849 2385.460205,833.787415 2399.347900,838.391296 
	C2421.076660,845.594666 2439.141113,858.099792 2452.598633,877.002014 
	C2465.084961,894.539795 2464.576660,929.942871 2446.346436,945.026001 
	C2442.374268,948.312439 2437.737061,950.794800 2432.609863,954.171997 
	C2430.758789,950.752869 2429.318848,948.628357 2428.392090,946.299622 
	C2418.305176,920.954407 2385.619385,912.403015 2363.492188,925.446533 
	C2343.168213,937.427124 2333.981445,956.490784 2331.887207,979.172852 
	C2330.495850,994.240540 2332.998047,1009.018372 2337.768799,1023.427917 
	C2347.034912,1051.415894 2360.236816,1077.449951 2375.753418,1102.456177 
	C2389.446289,1124.523193 2403.242676,1146.576904 2415.723145,1169.333130 
	C2433.447754,1201.651123 2444.671143,1236.484253 2452.102539,1272.536743 
	C2458.944336,1305.729736 2460.018799,1339.373657 2457.295166,1372.932373 
	C2454.463379,1407.826538 2446.464111,1441.892700 2435.431641,1475.151245 
	C2412.271484,1544.968994 2375.388672,1607.061646 2328.238525,1663.153076 
	C2311.333252,1683.264038 2294.096680,1703.260498 2275.364258,1721.629395 
	C2253.289307,1743.276001 2229.449707,1763.125488 2206.315918,1783.687622 
	C2202.684570,1786.915527 2198.739990,1789.791138 2193.510986,1791.746826 
	C2193.999023,1790.399048 2194.186035,1788.820068 2195.018066,1787.736816 
	C2219.298828,1756.137329 2234.078125,1720.440552 2239.507568,1681.131836 
	C2245.351562,1638.820801 2239.871094,1597.550049 2225.726318,1557.311035 
	C2209.423584,1510.933838 2184.418457,1469.520996 2154.640137,1430.697632 
	C2138.580811,1409.760742 2120.865967,1390.336060 2102.126953,1371.861206 
	C2093.720947,1363.573608 2084.821533,1355.600708 2073.554688,1348.517944 
	C2072.583496,1354.260620 2071.844971,1358.713623 2071.075928,1363.161499 
	C2066.033447,1392.321289 2053.633057,1418.157349 2035.741577,1441.532593 
	C2014.649658,1469.089355 1989.005493,1491.578491 1958.565674,1509.781128 
	C1957.088623,1509.231934 1956.759521,1508.927002 1956.430298,1508.622070 
M1982.711060,1145.319214 
	C1982.620239,1145.131592 1982.529541,1144.943848 1982.438843,1144.756104 
	C1982.420776,1144.929565 1982.402710,1145.102905 1982.711060,1145.319214 
z"/>
<path fill="#000000" opacity="1.000000" stroke="none" 
	d="
M3753.272461,897.277222 
	C3773.065674,878.163452 3791.014404,858.144226 3811.553223,840.161255 
	C3814.303955,848.913940 3814.486572,1386.882080 3812.055420,1396.076904 
	C3804.625244,1398.019287 3686.638672,1398.555908 3673.348877,1396.510010 
	C3673.026611,1392.669922 3672.380127,1388.524780 3672.375732,1384.378784 
	C3672.309326,1324.390381 3672.329346,1264.401855 3672.328857,1204.413452 
	C3672.328857,1200.538940 3672.328857,1196.664551 3672.328857,1192.790039 
	C3671.633301,1192.521851 3670.937744,1192.253662 3670.242188,1191.985596 
	C3624.862549,1237.078369 3579.483154,1282.171143 3533.157471,1328.204102 
	C3487.455811,1282.502319 3442.015869,1237.062134 3396.575928,1191.622070 
	C3395.844727,1191.848877 3395.113770,1192.075684 3394.382812,1192.302490 
	C3394.291992,1214.783569 3394.349609,1237.268188 3394.339844,1259.750854 
	C3394.329834,1282.413208 3394.338135,1305.075439 3394.338135,1327.737793 
	C3394.338135,1350.358398 3394.337891,1372.979004 3394.337891,1396.811035 
	C3382.006836,1398.427856 3370.441406,1397.476929 3358.957520,1397.639648 
	C3347.295166,1397.804810 3335.629150,1397.676025 3323.964600,1397.676025 
	C3312.633545,1397.676025 3301.302246,1397.707642 3289.971191,1397.667114 
	C3278.408936,1397.625854 3266.846436,1397.513550 3255.683105,1397.435059 
	C3253.310791,1388.751953 3252.673828,854.335571 3254.875732,840.459473 
	C3257.307861,842.156860 3259.510986,843.266846 3261.174805,844.919556 
	C3286.407471,869.981750 3311.628418,895.056091 3336.725342,920.254028 
	C3351.516113,935.104614 3365.965332,950.296143 3380.786133,965.116516 
	C3395.381836,979.711487 3410.357178,993.926697 3424.981201,1008.494141 
	C3459.203613,1042.583862 3493.312988,1076.786987 3527.479492,1110.932861 
	C3529.114014,1112.566406 3530.860107,1114.087891 3533.354248,1116.404785 
	C3552.604004,1098.717041 3570.353760,1079.901245 3588.718262,1061.732056 
	C3606.960693,1043.684326 3625.030762,1025.462280 3643.176514,1007.316833 
	C3661.557861,988.935669 3679.933350,970.548828 3698.321777,952.174683 
	C3716.469971,934.040100 3734.630615,915.918091 3753.272461,897.277222 
z"/>
<path fill="#000000" opacity="1.000000" stroke="none" 
	d="
M2665.661621,1137.999756 
	C2665.661621,1038.070435 2665.661621,939.141235 2665.661621,840.616211 
	C2674.719482,837.714294 2794.660400,837.461853 2805.516846,840.310303 
	C2805.856934,862.769043 2805.617676,885.658081 2805.661133,908.538818 
	C2805.704834,931.538757 2805.670654,954.538757 2805.670654,977.538757 
	C2805.670654,1000.872070 2805.670654,1024.205322 2805.670654,1047.538696 
	C2805.670654,1070.538696 2805.670654,1093.538696 2805.670654,1116.538696 
	C2805.670654,1139.538696 2805.670654,1162.538574 2805.670654,1185.538574 
	C2805.670654,1208.482910 2805.670654,1231.427124 2805.670654,1255.350342 
	C2809.815674,1255.729858 2813.000732,1256.273438 2816.186279,1256.276001 
	C2879.519531,1256.327148 2942.853271,1256.237549 3006.186035,1256.433594 
	C3012.772705,1256.453979 3017.460449,1254.232422 3021.966309,1249.638916 
	C3039.702637,1231.556519 3057.558350,1213.583496 3075.722656,1195.933105 
	C3081.400635,1190.416382 3083.837158,1184.621704 3083.807617,1176.626587 
	C3083.550781,1107.627563 3083.662842,1038.627319 3083.661133,969.627380 
	C3083.660400,929.294067 3083.652344,888.960815 3083.649902,848.627502 
	C3083.649170,838.887634 3083.945068,838.390442 3093.625977,838.371155 
	C3133.959229,838.290833 3174.292480,838.323792 3214.625732,838.374390 
	C3217.224365,838.377686 3219.822754,838.879639 3223.415527,839.252930 
	C3223.737305,843.050415 3224.293945,846.562500 3224.295410,850.074768 
	C3224.348145,983.741272 3224.322021,1117.407837 3224.463867,1251.074219 
	C3224.469238,1256.227295 3222.780029,1259.858887 3219.260254,1263.367676 
	C3176.532227,1305.963379 3133.822021,1348.577881 3091.316406,1391.395020 
	C3086.345215,1396.402344 3080.977295,1397.761719 3074.312744,1397.751709 
	C2994.312744,1397.631470 2914.312988,1397.675537 2834.312988,1397.676147 
	C2782.646973,1397.676514 2730.980957,1397.676025 2679.314941,1397.675903 
	C2675.392334,1397.675903 2671.469482,1397.675781 2669.057129,1397.675781 
	C2667.298096,1396.243408 2666.989990,1396.070435 2666.795166,1395.811890 
	C2666.601562,1395.555054 2666.476074,1395.222778 2666.402344,1394.904663 
	C2666.178711,1393.937622 2665.820557,1392.961426 2665.819824,1391.988647 
	C2665.748535,1307.659058 2665.706055,1223.329468 2665.661621,1137.999756 
z"/>
<path fill="#000100" opacity="1.000000" stroke="none" 
	d="
M354.340515,1054.000244 
	C354.340546,1121.560913 354.340546,1188.121582 354.340546,1255.603149 
	C359.688873,1255.868774 364.238190,1256.290039 368.787689,1256.291870 
	C460.754669,1256.330688 552.721680,1256.321533 644.688660,1256.322021 
	C649.267700,1256.322021 653.846741,1256.322021 657.975159,1256.322021 
	C660.757935,1264.913208 661.394775,1384.019775 658.950684,1396.946411 
	C654.684937,1397.180054 650.144836,1397.644531 645.604614,1397.646118 
	C523.981628,1397.685913 402.358612,1397.678833 280.735626,1397.678101 
	C261.409821,1397.677979 242.083633,1397.740845 222.758362,1397.637451 
	C213.011581,1397.585327 212.578156,1397.031982 212.346680,1387.532837 
	C212.297974,1385.534668 212.327805,1383.534424 212.327805,1381.535156 
	C212.327209,1205.931519 212.324173,1030.327881 212.331970,854.724304 
	C212.332748,837.271423 211.243942,838.333923 228.496582,838.326721 
	C265.816528,838.311279 303.136505,838.291321 340.456299,838.367493 
	C344.661499,838.376099 348.865448,838.991089 354.340485,839.425781 
	C354.340485,911.218323 354.340485,982.109253 354.340515,1054.000244 
z"/>
<path fill="#000100" opacity="1.000000" stroke="none" 
	d="
M892.000122,1256.320923 
	C970.662048,1256.421509 1048.323975,1256.518066 1125.985718,1256.668945 
	C1126.894653,1256.670654 1127.802246,1257.370728 1128.613525,1257.704834 
	C1130.897339,1265.943726 1131.083984,1386.791626 1128.872803,1396.107178 
	C1120.173584,1398.340454 691.794800,1398.323608 682.740906,1395.840576 
	C682.560242,1391.908447 682.198425,1387.676636 682.196289,1383.444580 
	C682.155334,1300.823242 682.168884,1218.201904 682.145264,1135.580566 
	C682.118896,1043.610596 682.061340,951.640686 682.039307,859.670715 
	C682.038086,854.673340 682.278870,849.676331 682.333862,844.678406 
	C682.378906,840.581055 684.438232,838.557251 688.469421,838.448120 
	C690.801392,838.385010 693.134460,838.328674 695.467041,838.328247 
	C733.799927,838.320923 772.132874,838.318542 810.465759,838.332520 
	C813.129578,838.333496 816.041748,837.830750 818.382080,838.738647 
	C820.415405,839.527405 822.519348,841.716492 823.285522,843.773376 
	C824.165039,846.134644 823.663208,849.031799 823.663513,851.696167 
	C823.673523,937.361877 823.771606,1023.027832 823.610413,1108.693237 
	C823.562195,1134.326416 822.459351,1159.957886 822.441223,1185.590698 
	C822.425842,1207.222656 823.272644,1228.855347 823.773254,1250.486938 
	C823.803406,1251.789429 824.146484,1253.084595 824.549255,1255.733032 
	C846.633179,1256.967041 868.835083,1256.020142 892.000122,1256.320923 
z"/>
<path fill="#000100" opacity="1.000000" stroke="none" 
	d="
M74.001221,838.322388 
	C107.920090,838.322388 140.839325,838.322388 173.316605,838.322388 
	C176.136398,846.823608 176.721283,1384.676758 174.347214,1395.788208 
	C166.533630,1398.309448 44.485699,1398.529297 35.228218,1396.038818 
	C33.305111,1388.533081 32.782818,852.429382 34.915340,839.171875 
	C47.313286,837.380859 60.210762,838.752319 74.001221,838.322388 
z"/>
<path fill="#000000" opacity="1.000000" stroke="none" 
	d="
M2499.661621,1179.999756 
	C2499.661621,1066.113037 2499.661621,953.226257 2499.661621,839.501953 
	C2504.117676,839.023804 2507.325439,838.385559 2510.534180,838.379944 
	C2550.523438,838.310364 2590.512695,838.331177 2630.501953,838.336365 
	C2632.167480,838.336609 2633.838623,838.338440 2635.497314,838.465454 
	C2639.424316,838.766113 2641.233154,840.519226 2641.202637,844.872559 
	C2640.826660,898.833862 2640.322266,952.796875 2640.427734,1006.758362 
	C2640.674072,1133.018921 2641.234375,1259.278809 2641.660645,1385.538940 
	C2641.667480,1387.537598 2641.586182,1389.536377 2641.547852,1391.535156 
	C2641.468994,1395.670654 2639.217041,1397.523193 2635.228760,1397.569580 
	C2633.229980,1397.592896 2631.230957,1397.667725 2629.232178,1397.668091 
	C2589.909424,1397.673828 2550.586426,1397.685547 2511.263672,1397.646362 
	C2508.000488,1397.643188 2504.737549,1397.285278 2502.406250,1397.147217 
	C2501.260742,1396.212646 2500.949707,1396.040649 2500.759277,1395.780518 
	C2500.568604,1395.520386 2500.455322,1395.181519 2500.383789,1394.860352 
	C2500.167236,1393.891724 2499.818115,1392.915161 2499.817139,1391.941406 
	C2499.746826,1321.627563 2499.705322,1251.313721 2499.661621,1179.999756 
z"/>
<path fill="#010101" opacity="1.000000" stroke="none" 
	d="
M1349.999756,1397.682373 
	C1284.113403,1397.682373 1219.226929,1397.682373 1153.380371,1397.682373 
	C1152.959717,1393.422852 1152.376953,1390.242065 1152.372070,1387.060425 
	C1152.310181,1347.087891 1152.294189,1307.115234 1152.357910,1267.142578 
	C1152.374268,1256.860352 1152.855469,1256.370117 1163.070801,1256.354004 
	C1205.375244,1256.287109 1247.679565,1256.318359 1289.984009,1256.317993 
	C1415.231689,1256.316895 1540.479492,1256.315552 1665.727173,1256.321167 
	C1681.656006,1256.321899 1681.670044,1256.340576 1681.673706,1272.083984 
	C1681.682373,1309.058716 1681.679810,1346.033447 1681.669312,1383.008179 
	C1681.668579,1386.004883 1681.634155,1389.004272 1681.503906,1391.997559 
	C1681.347168,1395.600220 1679.323975,1397.432861 1675.775024,1397.532715 
	C1672.113281,1397.635742 1668.448730,1397.676147 1664.785400,1397.676392 
	C1560.190186,1397.683594 1455.595093,1397.682373 1349.999756,1397.682373 
z"/>
<path fill="#000100" opacity="1.000000" stroke="none" 
	d="
M1591.999878,1048.030029 
	C1618.311523,1047.983276 1643.623169,1047.943237 1668.934814,1047.911987 
	C1671.264526,1047.909180 1673.597168,1047.900635 1675.923462,1048.004395 
	C1679.508911,1048.164062 1681.358276,1050.129028 1681.516846,1053.691650 
	C1681.590820,1055.354736 1681.656006,1057.019897 1681.656372,1058.684204 
	C1681.664429,1098.323242 1681.676147,1137.962158 1681.636230,1177.601196 
	C1681.633179,1180.538818 1681.246460,1183.476196 1681.092773,1185.644653 
	C1680.292480,1186.631714 1680.117676,1186.934570 1679.862915,1187.136719 
	C1679.612305,1187.335449 1679.292358,1187.516602 1678.982544,1187.559692 
	C1677.017944,1187.832275 1675.047729,1188.278931 1673.079346,1188.279175 
	C1501.865845,1188.301270 1330.652344,1188.288940 1159.438843,1188.255615 
	C1158.124268,1188.255371 1156.793579,1188.010254 1155.502441,1187.731201 
	C1154.899658,1187.600952 1154.373779,1187.115601 1153.078369,1186.366211 
	C1153.078369,1141.023682 1153.078369,1095.273315 1153.078369,1048.038940 
	C1299.549316,1048.038940 1445.274658,1048.038940 1591.999878,1048.030029 
z"/>
<path fill="#000100" opacity="1.000000" stroke="none" 
	d="
M1938.913818,732.903564 
	C1938.030273,732.411011 1937.640625,731.462830 1937.250977,730.514648 
	C1938.074951,730.578552 1938.899048,730.642456 1940.058350,731.120422 
	C1940.065063,731.839050 1939.736450,732.143494 1938.913818,732.903564 
z"/>
<path fill="#000100" opacity="1.000000" stroke="none" 
	d="
M1957.910645,1509.994995 
	C1957.405273,1510.798462 1956.406860,1511.143799 1955.408447,1511.489014 
	C1955.488770,1510.755249 1955.569092,1510.021362 1956.039795,1508.954834 
	C1956.759521,1508.927002 1957.088623,1509.231934 1957.910645,1509.994995 
z"/>
<path fill="#47704C" opacity="1.000000" stroke="none" 
	d="
M1982.547852,1145.297852 
	C1982.402710,1145.102905 1982.420776,1144.929565 1982.438843,1144.756104 
	C1982.529541,1144.943848 1982.620239,1145.131592 1982.547852,1145.297852 
z"/>
<path fill="#47704C" opacity="1.000000" stroke="none" 
	d="
M1937.914307,974.050293 
	C1938.341675,974.302917 1938.814087,974.505676 1939.286499,974.708496 
	C1938.866821,974.653625 1938.447144,974.598755 1938.038086,974.222046 
	C1938.048828,973.900208 1937.959229,974.000366 1937.914307,974.050293 
z"/>
</svg>